# xmcd
#
# Track frame offsets: 
#        150
#        15513
#        27469
#        37160
#        53412
#        69019
#        83794
#        96851
#        107782
#        118405
#        131869
#        143635
#        158402
#        169290
#        180762
#        194628
#
# Disc length: 2774 seconds
#
# Revision: 0
# Processed by: cddbd v1.5.2PL0 Copyright (c) Steve Scherf et al.
# Submitted via: ExactAudioCopyFreeDBPlugin 1.0
#
DISCID=d20ad410
DTITLE=Various Brazil Artists - Oktoberfest Santa Cruz Do Sul 
DYEAR=2010
DGENRE=National Folk
TTITLE0=Ah, Se Nao Fosse A Frida
TTITLE1=Valsa Du Chopp
TTITLE2=Ja Comecou
TTITLE3=Maxixe Astral
TTITLE4=Rebolitz Do Alemao
TTITLE5=Polka Em Festa
TTITLE6=Volksmusik
TTITLE7=Valsa Da Frida
TTITLE8=Cerveja Garrafao
TTITLE9=Caneco Quebrado
TTITLE10=Alegria Esta De Volta
TTITLE11=Wenn die Musik spielt
TTITLE12=Chegou O Mes De Outubro
TTITLE13=Arrastando Pe Com Os Garotos
TTITLE14=Polka Rincao Del Rey
TTITLE15=Polka Do Puvi
EXTD=
EXTT0=
EXTT1=
EXTT2=
EXTT3=
EXTT4=
EXTT5=
EXTT6=
EXTT7=
EXTT8=
EXTT9=
EXTT10=
EXTT11=
EXTT12=
EXTT13=
EXTT14=
EXTT15=
PLAYORDER=
